<?xml version="1.0" encoding="utf-8"?>
<!-- Generator: Adobe Illustrator 24.0.1, SVG Export Plug-In . SVG Version: 6.00 Build 0)  -->
<svg version="1.1" id="Layer_1" xmlns="http://www.w3.org/2000/svg" xmlns:xlink="http://www.w3.org/1999/xlink" x="0px" y="0px"
	 viewBox="0 0 158 55" style="enable-background:new 0 0 158 55;" xml:space="preserve">
<style type="text/css">
	.st0{fill:#256FFF;}
</style>
<path class="st0" d="M41.7,20.6h-9v-9h-8.4v9h-9.1V29h9.1v9h8.4v-9h9V20.6z"/>
<path class="st0" d="M49.5,42.7l-0.1-0.1l-3.3-3.3c8-9.6,6.5-23.9-3.2-31.8c-4-3.3-9.1-5.1-14.4-5.1c-1,0-1.9,0.9-1.9,1.9
	c0,1,0.9,1.9,1.9,1.9c10.6,0,19,8.5,19,19c0,10.5-8.6,18.9-19.2,18.9c-10.5-0.1-19-8.6-19-19c0-1-0.9-1.9-1.9-1.9S5.6,24,5.6,25
	c0,12.5,10.1,22.6,22.7,22.7c5.6,0,11-2,15.2-5.7l1.9,1.9c-9.9,9.3-25.5,8.9-34.9-0.9c-7.9-8.2-9-20.7-2.8-30.2
	c0.7,0.3,1.5,0.4,2.3,0.4c3.7,0,6.7-2.9,6.7-6.6S13.8,0,10.1,0C6.4,0,3.4,2.9,3.4,6.6c0,1.5,0.5,2.9,1.3,4c-8.7,13-5.1,30.5,8,39
	c11.7,7.7,27.3,5.8,36.7-4.5C50.1,44.4,50.1,43.3,49.5,42.7L49.5,42.7z M10,3.8C11.6,3.8,13,5,13,6.7c0,1.6-1.3,2.9-2.9,2.9
	c-1.6,0-2.9-1.3-2.9-2.9v0C7.2,5,8.4,3.8,10,3.8z"/>
<path class="st0" d="M62.5,35.4h-2.4V21.7c0-0.9,0.3-1.6,0.9-2.2c0.6-0.6,1.4-0.9,2.2-0.9h3.3c1.7,0,3.1,0.5,4.3,1.5
	c1.1,0.9,1.9,2.1,2.4,3.6c0.4,1,0.6,2.2,0.6,3.3c0,1.1-0.2,2.3-0.6,3.3c-0.5,1.5-1.3,2.7-2.4,3.6c-1.2,1-2.6,1.5-4.3,1.5h-2.9V33
	h2.9c1.1,0,2-0.3,2.8-1c0.7-0.6,1.3-1.4,1.6-2.5c0.3-0.8,0.4-1.7,0.4-2.6c0-0.9-0.1-1.8-0.4-2.6c-0.4-1-0.9-1.8-1.6-2.4
	c-0.8-0.7-1.8-1-2.8-1h-3.3c-0.2,0-0.4,0.1-0.5,0.2c-0.1,0.1-0.2,0.3-0.2,0.5L62.5,35.4L62.5,35.4z"/>
<path class="st0" d="M81.6,23.2c1.8,0,3.3,0.6,4.4,1.6c1.1,1.1,1.7,2.6,1.7,4.6S87.2,32.9,86,34c-1.1,1.1-2.6,1.6-4.4,1.6
	c-1.8,0-3.3-0.6-4.4-1.6c-1.1-1.1-1.7-2.6-1.7-4.6s0.6-3.5,1.7-4.6C78.3,23.8,79.8,23.2,81.6,23.2z M78.9,26.5c-0.7,0.7-1,1.6-1,2.9
	s0.3,2.3,1,2.9c0.6,0.6,1.6,0.9,2.7,0.9c1.2,0,2.1-0.3,2.7-0.9c0.7-0.7,1-1.6,1-2.9c0-1.3-0.3-2.3-1-2.9c-0.6-0.6-1.5-0.9-2.7-0.9
	C80.5,25.6,79.5,25.9,78.9,26.5z"/>
<path class="st0" d="M98.5,25.6h-0.7c-2.2,0-3.7,0.1-4.5,0.5c-0.5,0.2-0.9,0.5-1.2,0.9c-0.3,0.5-0.5,1.4-0.5,2.4
	c0,1.1,0.1,1.9,0.5,2.4c0.2,0.4,0.6,0.7,1.1,0.9c0.8,0.3,2.3,0.5,4.6,0.5h0.7v2.4h-0.7c-2.6,0-4.5-0.2-5.6-0.7
	c-1-0.5-1.7-1.1-2.2-1.9c-0.5-0.9-0.8-2.1-0.8-3.6c0-1.5,0.3-2.7,0.9-3.7c0.5-0.8,1.3-1.5,2.3-1.9c1.1-0.5,2.9-0.7,5.4-0.7h0.7V25.6
	z"/>
<path class="st0" d="M102.9,25.8v3.6c0,1.2,0.3,2.1,1,2.7c0.6,0.6,1.5,0.9,2.6,0.9h0.2v2.4h-0.2c-1.8,0-3.2-0.6-4.3-1.6
	c-1.1-1.1-1.7-2.6-1.7-4.4V18.6h2.3v4.8h3.7v2.4H102.9z"/>
<path class="st0" d="M113.9,23.2c1.8,0,3.3,0.6,4.4,1.6c1.1,1.1,1.7,2.6,1.7,4.6s-0.6,3.5-1.7,4.6c-1.1,1.1-2.6,1.6-4.4,1.6
	c-1.8,0-3.3-0.6-4.4-1.6c-1.1-1.1-1.7-2.6-1.7-4.6s0.6-3.5,1.7-4.6C110.6,23.8,112.1,23.2,113.9,23.2z M111.2,26.5
	c-0.7,0.7-1,1.6-1,2.9s0.3,2.3,1,2.9c0.6,0.6,1.6,0.9,2.7,0.9c1.2,0,2.1-0.3,2.7-0.9c0.7-0.7,1-1.6,1-2.9c0-1.3-0.3-2.3-1-2.9
	c-0.6-0.6-1.5-0.9-2.7-0.9C112.7,25.6,111.9,25.9,111.2,26.5z"/>
<path class="st0" d="M129.3,23.4v2.4h-0.4c-1.8,0-3,0.3-3.6,1c-0.5,0.5-0.8,1.4-0.8,2.6v6h-2.4v-6c0-1.8,0.5-3.3,1.5-4.2
	c1.2-1.2,2.9-1.8,5.4-1.8H129.3z"/>
<path class="st0" d="M138.7,22.7l-5.5,6.8h4.5v2.4h-6.6c-0.3,0-0.5-0.1-0.7-0.3c-0.3-0.2-0.4-0.5-0.5-0.8c0-0.3,0.1-0.6,0.3-0.9
	l8.7-10.9c0.2-0.3,0.6-0.5,1-0.5c0.3,0,0.6,0.1,0.9,0.3c0.2,0.2,0.4,0.5,0.4,0.8v9.8h3.2v2.4h-3.2v3.6h-2.4V22.7z"/>
<path class="st0" d="M155.6,18.6h2.4v11.1c0,1.8-0.6,3.3-1.7,4.4c-1.1,1.1-2.6,1.6-4.4,1.6c-1.8,0-3.3-0.6-4.4-1.6
	c-1.1-1.1-1.7-2.6-1.7-4.4V18.6h2.4v11.1c0,1.2,0.3,2.1,1,2.7c0.6,0.6,1.6,0.9,2.7,0.9c1.2,0,2.1-0.3,2.7-0.9c0.7-0.7,1-1.5,1-2.7
	L155.6,18.6L155.6,18.6z"/>
</svg>
